<svg xmlns="http://www.w3.org/2000/svg" viewBox="0 0 285 82.2" enable-background="new 0 0 285 82.2"><g><circle fill="#90CFF1" cx="29.6" cy="52.5" r="27.1"/><path fill="#90CFF1" d="M33.707 10.706l19.546 7.114-5.369 14.753-19.546-7.114z"/><circle fill="#90CFF1" cx="32.8" cy="6.2" r="4.1"/><circle fill="#90CFF1" cx="56.8" cy="15" r="4.1"/><path fill="#90CFF1" d="M34.27 2.389l23.962 8.721-2.804 7.706-23.962-8.721z"/><path fill="#AF1CD3" d="M50.3 60c-1.3 3.4-3.3 6.4-5.8 8.7-4.9 4.5-11.6 6.6-18.4 5.5-1.4-.2-2.7-.6-4.1-1.1-11.4-4.1-17.3-16.7-13.1-28.2 1.2-3.2 3-6 5.3-8.2 2.1 1.9 4.5 3.4 7.3 4.4 5.5 2 11.2 1.7 16.2-.5l.1.1c.4.4.7.8 1.1 1.1 2.7 2.7 6 4.8 9.8 6.2.9.3 1.8.6 2.7.8.5 3.7.3 7.5-1.1 11.2z"/><path fill="#7C00A0" d="M37.8 40.7c-5 2.1-10.7 2.4-16.2.5-2.8-1-5.3-2.6-7.3-4.4 1-1 2.1-1.9 3.3-2.6 1.1-.7 2.5-1.1 3.9-1 2.2.2 4.5.7 6.7 1.5 3.6 1.3 6.9 3.4 9.6 6z"/><path fill="#E24FFF" d="M51.4 48.9c-.9-.2-1.8-.5-2.7-.8-3.8-1.4-7.1-3.5-9.8-6.2l-1.1-1.2c2-.6 4.1-1 6.3-1 2.4 0 4.5 1.4 5.5 3.5.8 1.9 1.4 3.7 1.8 5.7z"/><circle fill="#FFE8FF" cx="29.6" cy="52.5" r="2.5"/><g fill="#FFE8FF"><circle cx="30.7" cy="53.4" r="1.4"/><circle cx="37" cy="58.7" r="1.4"/><path d="M36.031 59.718l-6.281-5.271 1.864-2.221 6.281 5.271z"/></g><g fill="#FFE8FF"><circle cx="28.7" cy="53.6" r="1.4"/><path d="M29.774 54.496l-8.678 10.341-2.221-1.864 8.678-10.341z"/><circle cx="20" cy="63.9" r="1.4"/></g><circle fill="#E24FFF" cx="36.6" cy="23.2" r="4.1"/><path fill="#7C00A0" d="M46.6 20c-1.3.6-2.8 0-3.4-1.2-.6-1.3 0-2.8 1.2-3.4 1.3-.6 2.8 0 3.4 1.2.6 1.3.1 2.8-1.2 3.4z"/><path fill="#AF1CD3" d="M42.7 34.9c-1.3.6-2.8 0-3.4-1.2-.6-1.3 0-2.8 1.2-3.4 1.3-.6 2.8 0 3.4 1.2.6 1.3.1 2.8-1.2 3.4z"/><g fill="#fff"><path d="M260 29.6c-12.2 0-22 9.9-22 22s9.9 22 22 22c12.2 0 22-9.9 22-22s-9.8-22-22-22zm0 35.9c-7.6 0-13.8-6.2-13.8-13.8s6.2-13.8 13.8-13.8c7.6 0 13.8 6.2 13.8 13.8s-6.1 13.8-13.8 13.8z"/><circle cx="278" cy="70.4" r="4.1"/><circle cx="278" cy="34.5" r="4.1"/><path d="M273.9 34.5h8.2v35.9h-8.2z"/></g><path fill="#fff" d="M229.6 49.2v21.2c0 2.3-1.7 4.1-4 4.1s-4-1.8-4-4.1v-21.2c0-5.9-4.6-10.6-10.5-10.6s-10.5 4.7-10.5 10.6v21.2c0 2.3-2.2 4.1-4.5 4.1s-4.5-1.8-4.5-4.1v-21.2c0-4 1.5-7.6 3.6-10.7 1-1.5 2.5-2.9 3.9-4l1.1-.8c3-2.1 6.7-3.3 10.7-3.3s7.7 1.2 10.7 3.3c.4.2.7.5 1 .8 1.4 1.1 2.6 2.5 3.7 4 2.2 3.1 3.3 6.8 3.3 10.7z"/><g fill="#fff"><path d="M162 29.6c-12.2 0-22 9.9-22 22s9.9 22 22 22c12.2 0 22-9.9 22-22s-9.8-22-22-22zm0 35.9c-7.6 0-13.8-6.2-13.8-13.8s6.2-13.8 13.8-13.8c7.6 0 13.8 6.2 13.8 13.8s-6.2 13.8-13.8 13.8z"/><circle cx="179.9" cy="70.4" r="4.1"/><circle cx="179.9" cy="34.5" r="4.1"/><path d="M175.8 34.5h8.2v35.9h-8.2z"/></g><g fill="#fff"><path d="M102.6 49.2v21.2c0 2.3-2.2 4.1-4.5 4.1s-4.5-1.8-4.5-4.1v-21.2c0-5.9-4.6-10.6-10.5-10.6s-10.5 4.7-10.5 10.6v21.2c0 2.3-1.7 4.1-4 4.1s-4-1.8-4-4.1v-21.2c0-4 1.4-7.6 3.5-10.7 1-1.5 2.4-2.9 3.8-4 .3-.3.7-.5 1.1-.8 3-2.1 6.7-3.3 10.7-3.3 4 0 7.6 1.2 10.7 3.3.4.2.7.5 1 .8 1.4 1.1 2.8 2.5 3.8 4 2.1 3.1 3.4 6.8 3.4 10.7zM131.6 49.2v21.2c0 2.3-1.7 4.1-4 4.1s-4-1.8-4-4.1v-21.2c0-5.9-4.6-10.6-10.5-10.6s-10.5 4.7-10.5 10.6v21.2c0 2.3-2.2 4.1-4.5 4.1s-4.5-1.8-4.5-4.1v-21.2c0-4 1.5-7.6 3.6-10.7 1-1.5 2.5-2.9 3.9-4l1.1-.8c3-2.1 6.7-3.3 10.7-3.3 4 0 7.7 1.2 10.7 3.3.4.2.7.5 1 .8 1.4 1.1 2.6 2.5 3.7 4 2.2 3.1 3.3 6.8 3.3 10.7z"/></g></g></svg>